<svg id="visual" viewBox="0 0 675 900" width="675" height="900" xmlns="http://www.w3.org/2000/svg" xmlns:xlink="http://www.w3.org/1999/xlink" version="1.1"><path d="M0 348L9.3 343C18.7 338 37.3 328 56.2 331.5C75 335 94 352 112.8 352.2C131.7 352.3 150.3 335.7 169 327C187.7 318.3 206.3 317.7 225 319.2C243.7 320.7 262.3 324.3 281.2 332.7C300 341 319 354 337.8 356.2C356.7 358.3 375.3 349.7 394 348.8C412.7 348 431.3 355 450 355.3C468.7 355.7 487.3 349.3 506.2 341.3C525 333.3 544 323.7 562.8 322.8C581.7 322 600.3 330 619 331.3C637.7 332.7 656.3 327.3 665.7 324.7L675 322L675 0L665.7 0C656.3 0 637.7 0 619 0C600.3 0 581.7 0 562.8 0C544 0 525 0 506.2 0C487.3 0 468.7 0 450 0C431.3 0 412.7 0 394 0C375.3 0 356.7 0 337.8 0C319 0 300 0 281.2 0C262.3 0 243.7 0 225 0C206.3 0 187.7 0 169 0C150.3 0 131.7 0 112.8 0C94 0 75 0 56.2 0C37.3 0 18.7 0 9.3 0L0 0Z" fill="#d04ed6"></path><path d="M0 300L9.3 298.3C18.7 296.7 37.3 293.3 56.2 291.2C75 289 94 288 112.8 293.7C131.7 299.3 150.3 311.7 169 315C187.7 318.3 206.3 312.7 225 308C243.7 303.3 262.3 299.7 281.2 303.3C300 307 319 318 337.8 323.7C356.7 329.3 375.3 329.7 394 328.8C412.7 328 431.3 326 450 317C468.7 308 487.3 292 506.2 285.8C525 279.7 544 283.3 562.8 284.2C581.7 285 600.3 283 619 282.7C637.7 282.3 656.3 283.7 665.7 284.3L675 285L675 0L665.7 0C656.3 0 637.7 0 619 0C600.3 0 581.7 0 562.8 0C544 0 525 0 506.2 0C487.3 0 468.7 0 450 0C431.3 0 412.7 0 394 0C375.3 0 356.7 0 337.8 0C319 0 300 0 281.2 0C262.3 0 243.7 0 225 0C206.3 0 187.7 0 169 0C150.3 0 131.7 0 112.8 0C94 0 75 0 56.2 0C37.3 0 18.7 0 9.3 0L0 0Z" fill="#c74fd0"></path><path d="M0 297L9.3 291.5C18.7 286 37.3 275 56.2 273.7C75 272.3 94 280.7 112.8 285.5C131.7 290.3 150.3 291.7 169 287.7C187.7 283.7 206.3 274.3 225 267.7C243.7 261 262.3 257 281.2 256.8C300 256.7 319 260.3 337.8 262.7C356.7 265 375.3 266 394 267C412.7 268 431.3 269 450 272.5C468.7 276 487.3 282 506.2 283C525 284 544 280 562.8 276.5C581.7 273 600.3 270 619 271.2C637.7 272.3 656.3 277.7 665.7 280.3L675 283L675 0L665.7 0C656.3 0 637.7 0 619 0C600.3 0 581.7 0 562.8 0C544 0 525 0 506.2 0C487.3 0 468.7 0 450 0C431.3 0 412.7 0 394 0C375.3 0 356.7 0 337.8 0C319 0 300 0 281.2 0C262.3 0 243.7 0 225 0C206.3 0 187.7 0 169 0C150.3 0 131.7 0 112.8 0C94 0 75 0 56.2 0C37.3 0 18.7 0 9.3 0L0 0Z" fill="#bd50ca"></path><path d="M0 225L9.3 225.3C18.7 225.7 37.3 226.3 56.2 230.3C75 234.3 94 241.7 112.8 242.2C131.7 242.7 150.3 236.3 169 233.2C187.7 230 206.3 230 225 231.8C243.7 233.7 262.3 237.3 281.2 238.2C300 239 319 237 337.8 234.5C356.7 232 375.3 229 394 231.7C412.7 234.3 431.3 242.7 450 248.8C468.7 255 487.3 259 506.2 252.2C525 245.3 544 227.7 562.8 221.2C581.7 214.7 600.3 219.3 619 220.3C637.7 221.3 656.3 218.7 665.7 217.3L675 216L675 0L665.7 0C656.3 0 637.7 0 619 0C600.3 0 581.7 0 562.8 0C544 0 525 0 506.2 0C487.3 0 468.7 0 450 0C431.3 0 412.7 0 394 0C375.3 0 356.7 0 337.8 0C319 0 300 0 281.2 0C262.3 0 243.7 0 225 0C206.3 0 187.7 0 169 0C150.3 0 131.7 0 112.8 0C94 0 75 0 56.2 0C37.3 0 18.7 0 9.3 0L0 0Z" fill="#b450c4"></path><path d="M0 199L9.3 199C18.7 199 37.3 199 56.2 202.3C75 205.7 94 212.3 112.8 215.3C131.7 218.3 150.3 217.7 169 216.8C187.7 216 206.3 215 225 211.5C243.7 208 262.3 202 281.2 198.8C300 195.7 319 195.3 337.8 199.5C356.7 203.7 375.3 212.3 394 215.2C412.7 218 431.3 215 450 210.7C468.7 206.3 487.3 200.7 506.2 195.3C525 190 544 185 562.8 188.2C581.7 191.3 600.3 202.7 619 210.7C637.7 218.7 656.3 223.3 665.7 225.7L675 228L675 0L665.7 0C656.3 0 637.7 0 619 0C600.3 0 581.7 0 562.8 0C544 0 525 0 506.2 0C487.3 0 468.7 0 450 0C431.3 0 412.7 0 394 0C375.3 0 356.7 0 337.8 0C319 0 300 0 281.2 0C262.3 0 243.7 0 225 0C206.3 0 187.7 0 169 0C150.3 0 131.7 0 112.8 0C94 0 75 0 56.2 0C37.3 0 18.7 0 9.3 0L0 0Z" fill="#ab50bd"></path><path d="M0 179L9.3 176.5C18.7 174 37.3 169 56.2 170.3C75 171.7 94 179.3 112.8 179.2C131.7 179 150.3 171 169 166C187.7 161 206.3 159 225 160C243.7 161 262.3 165 281.2 165.5C300 166 319 163 337.8 163.8C356.7 164.7 375.3 169.3 394 168.5C412.7 167.7 431.3 161.3 450 161.8C468.7 162.3 487.3 169.7 506.2 169.2C525 168.7 544 160.3 562.8 159.7C581.7 159 600.3 166 619 169.5C637.7 173 656.3 173 665.7 173L675 173L675 0L665.7 0C656.3 0 637.7 0 619 0C600.3 0 581.7 0 562.8 0C544 0 525 0 506.2 0C487.3 0 468.7 0 450 0C431.3 0 412.7 0 394 0C375.3 0 356.7 0 337.8 0C319 0 300 0 281.2 0C262.3 0 243.7 0 225 0C206.3 0 187.7 0 169 0C150.3 0 131.7 0 112.8 0C94 0 75 0 56.2 0C37.3 0 18.7 0 9.3 0L0 0Z" fill="#a350b7"></path><path d="M0 123L9.3 126C18.7 129 37.3 135 56.2 135.8C75 136.7 94 132.3 112.8 129.3C131.7 126.3 150.3 124.7 169 126.5C187.7 128.3 206.3 133.7 225 136.5C243.7 139.3 262.3 139.7 281.2 141.2C300 142.7 319 145.3 337.8 142.3C356.7 139.3 375.3 130.7 394 126.8C412.7 123 431.3 124 450 124.5C468.7 125 487.3 125 506.2 126.3C525 127.7 544 130.3 562.8 135.2C581.7 140 600.3 147 619 147C637.7 147 656.3 140 665.7 136.5L675 133L675 0L665.7 0C656.3 0 637.7 0 619 0C600.3 0 581.7 0 562.8 0C544 0 525 0 506.2 0C487.3 0 468.7 0 450 0C431.3 0 412.7 0 394 0C375.3 0 356.7 0 337.8 0C319 0 300 0 281.2 0C262.3 0 243.7 0 225 0C206.3 0 187.7 0 169 0C150.3 0 131.7 0 112.8 0C94 0 75 0 56.2 0C37.3 0 18.7 0 9.3 0L0 0Z" fill="#9a4fb0"></path><path d="M0 88L9.3 90.5C18.7 93 37.3 98 56.2 98.2C75 98.3 94 93.7 112.8 91.5C131.7 89.3 150.3 89.7 169 92C187.7 94.3 206.3 98.7 225 99C243.7 99.3 262.3 95.7 281.2 98.3C300 101 319 110 337.8 111.5C356.7 113 375.3 107 394 102.3C412.7 97.7 431.3 94.3 450 95C468.7 95.7 487.3 100.3 506.2 104.5C525 108.7 544 112.3 562.8 114.7C581.7 117 600.3 118 619 118.8C637.7 119.7 656.3 120.3 665.7 120.7L675 121L675 0L665.7 0C656.3 0 637.7 0 619 0C600.3 0 581.7 0 562.8 0C544 0 525 0 506.2 0C487.3 0 468.7 0 450 0C431.3 0 412.7 0 394 0C375.3 0 356.7 0 337.8 0C319 0 300 0 281.2 0C262.3 0 243.7 0 225 0C206.3 0 187.7 0 169 0C150.3 0 131.7 0 112.8 0C94 0 75 0 56.2 0C37.3 0 18.7 0 9.3 0L0 0Z" fill="#924fa9"></path><path d="M0 62L9.3 62.2C18.7 62.3 37.3 62.7 56.2 66.7C75 70.7 94 78.3 112.8 80.3C131.7 82.3 150.3 78.7 169 75.8C187.7 73 206.3 71 225 70C243.7 69 262.3 69 281.2 71.2C300 73.3 319 77.7 337.8 79.2C356.7 80.7 375.3 79.3 394 76.5C412.7 73.7 431.3 69.3 450 66.7C468.7 64 487.3 63 506.2 64.2C525 65.3 544 68.7 562.8 72.5C581.7 76.3 600.3 80.7 619 83C637.7 85.3 656.3 85.7 665.7 85.8L675 86L675 0L665.7 0C656.3 0 637.7 0 619 0C600.3 0 581.7 0 562.8 0C544 0 525 0 506.2 0C487.3 0 468.7 0 450 0C431.3 0 412.7 0 394 0C375.3 0 356.7 0 337.8 0C319 0 300 0 281.2 0C262.3 0 243.7 0 225 0C206.3 0 187.7 0 169 0C150.3 0 131.7 0 112.8 0C94 0 75 0 56.2 0C37.3 0 18.7 0 9.3 0L0 0Z" fill="#8b4ea2"></path><path d="M0 47L9.3 46C18.7 45 37.3 43 56.2 43.8C75 44.7 94 48.3 112.8 49.7C131.7 51 150.3 50 169 49.5C187.7 49 206.3 49 225 49C243.7 49 262.3 49 281.2 45.7C300 42.3 319 35.7 337.8 33.8C356.7 32 375.3 35 394 36.3C412.7 37.7 431.3 37.3 450 39C468.7 40.7 487.3 44.3 506.2 44.7C525 45 544 42 562.8 42.3C581.7 42.7 600.3 46.3 619 47.3C637.7 48.3 656.3 46.7 665.7 45.8L675 45L675 0L665.7 0C656.3 0 637.7 0 619 0C600.3 0 581.7 0 562.8 0C544 0 525 0 506.2 0C487.3 0 468.7 0 450 0C431.3 0 412.7 0 394 0C375.3 0 356.7 0 337.8 0C319 0 300 0 281.2 0C262.3 0 243.7 0 225 0C206.3 0 187.7 0 169 0C150.3 0 131.7 0 112.8 0C94 0 75 0 56.2 0C37.3 0 18.7 0 9.3 0L0 0Z" fill="#834d9b"></path></svg>